<svg width="72" height="72" viewBox="0 0 72 72" fill="none" xmlns="http://www.w3.org/2000/svg">
<g filter="url(#filter0_f_567_1309)">
<path d="M56.6343 21.8048C53.0788 16.6262 46.1262 14 35.9732 14H35.9567C25.8191 14.0028 18.8836 16.6301 15.3435 21.8088C12.3797 26.1436 12 31.6703 12 36C12 40.3297 12.3797 45.8558 15.3435 50.1906C18.8836 55.3687 25.8191 57.996 35.9572 58H35.9772C46.1296 58 53.0794 55.3744 56.6349 50.1957C59.617 45.8513 60 40.3275 60 36.0006C60 31.6737 59.6181 26.1499 56.6355 21.806H56.6349L56.6343 21.8048Z" fill="url(#paint0_linear_567_1309)"/>
</g>
<path d="M55.7755 22.4505C52.368 17.5071 45.705 15 35.9749 15H35.9585C26.2431 15.0028 19.5964 17.5105 16.2042 22.4538C13.364 26.5918 13 31.8671 13 36C13 40.1329 13.364 45.4077 16.2042 49.5456C19.597 54.4884 26.2436 56.9966 35.959 57H35.9777C45.7072 57 52.3674 54.4934 55.7748 49.5501C58.6331 45.4032 59 40.1301 59 36C59 31.8699 58.6337 26.5974 55.7755 22.4505Z" fill="#0B0B11"/>
<path d="M45.5088 30.5791L45.5621 30.5436C45.4555 30.3481 45.2955 30.1703 45.1355 30.0815L36.551 25.1404C36.4088 25.0516 36.2133 25.016 36 25.016C35.7867 25.016 35.5912 25.0693 35.449 25.1404L26.9178 30.0992C26.6156 30.277 26.4023 30.7213 26.4023 31.059V40.9588C26.4023 41.1543 26.4379 41.3676 26.5623 41.5631L26.5268 41.5809C26.6156 41.7231 26.74 41.8475 26.8645 41.9186L35.4312 46.8773C35.5734 46.9662 35.7689 47.0018 35.9822 47.0018C36.1955 47.0018 36.391 46.9484 36.5332 46.8773L45.0645 41.9186C45.3666 41.7408 45.5799 41.2965 45.5799 40.9588V31.0412C45.5977 30.899 45.5799 30.7391 45.5088 30.5791ZM36 43.0205C32.1254 43.0205 28.9795 39.8746 28.9795 36C28.9795 32.1254 32.1254 28.9795 36 28.9795C38.6127 28.9795 40.8877 30.4191 42.0963 32.5342L39.7857 33.8672C39.0393 32.5342 37.6174 31.6455 36 31.6455C33.6006 31.6455 31.6455 33.6006 31.6455 36C31.6455 38.3994 33.6006 40.3545 36 40.3545C37.6174 40.3545 39.0393 39.4658 39.7857 38.1506L42.0785 39.5014C40.8699 41.5986 38.5949 43.0205 36 43.0205ZM45.0645 35.6445H44.4957L44.3357 36.3555H45.0645V37.2441H44.1758L43.9625 38.3106H43.0916L43.3049 37.2441H42.6295L42.4162 38.3106H41.5631L41.7764 37.2441H41.332V36.3555H41.9541L42.1141 35.6445H41.332V34.7559H42.274L42.4873 33.6895H43.3582L43.1449 34.7559H43.8203L44.0336 33.6895H44.8867L44.6734 34.7559H45.0645V35.6445ZM42.8072 36.3555H43.4826L43.6426 35.6445H42.9672L42.8072 36.3555Z" fill="#9956F6"/>
<defs>
<filter id="filter0_f_567_1309" x="0.598575" y="2.59857" width="70.8029" height="66.8029" filterUnits="userSpaceOnUse" color-interpolation-filters="sRGB">
<feFlood flood-opacity="0" result="BackgroundImageFix"/>
<feBlend mode="normal" in="SourceGraphic" in2="BackgroundImageFix" result="shape"/>
<feGaussianBlur stdDeviation="5.70071" result="effect1_foregroundBlur_567_1309"/>
</filter>
<linearGradient id="paint0_linear_567_1309" x1="11.9994" y1="35.9994" x2="59.9994" y2="35.9994" gradientUnits="userSpaceOnUse">
<stop stop-color="#DA75D3"/>
<stop offset="1" stop-color="#A075DA" stop-opacity="0.24"/>
</linearGradient>
</defs>
</svg>
