<svg width="72" height="72" viewBox="0 0 72 72" fill="none" xmlns="http://www.w3.org/2000/svg">
<g filter="url(#filter0_f_567_1262)">
<path d="M56.6343 21.8048C53.0788 16.6262 46.1262 14 35.9732 14H35.9567C25.8191 14.0028 18.8836 16.6301 15.3435 21.8088C12.3797 26.1436 12 31.6703 12 36C12 40.3297 12.3797 45.8558 15.3435 50.1906C18.8836 55.3687 25.8191 57.996 35.9572 58H35.9772C46.1296 58 53.0793 55.3744 56.6349 50.1957C59.6169 45.8513 60 40.3275 60 36.0006C60 31.6737 59.6181 26.1499 56.6354 21.806H56.6349L56.6343 21.8048Z" fill="url(#paint0_linear_567_1262)"/>
</g>
<path d="M55.7755 22.4505C52.368 17.5071 45.705 15 35.9749 15H35.9585C26.2431 15.0028 19.5964 17.5105 16.2042 22.4538C13.364 26.5918 13 31.8671 13 36C13 40.1329 13.364 45.4077 16.2042 49.5456C19.597 54.4884 26.2436 56.9966 35.959 57H35.9777C45.7072 57 52.3674 54.4934 55.7748 49.5501C58.6331 45.4032 59 40.1301 59 36C59 31.8699 58.6337 26.5974 55.7755 22.4505Z" fill="#0B0B11"/>
<g opacity="0.9">
<rect x="34.5" y="33.375" width="13.125" height="13.125" rx="6.5625" fill="#42A5F5"/>
<path d="M38.7349 36.875L38.5188 38.0115H43.0375L42.8912 38.7465H38.3758L38.1563 39.8797H42.6751L42.4224 41.1761L40.6002 41.792L39.0208 41.1761L39.1306 40.6181H38.02L37.7573 41.9792L40.3675 43L43.3767 41.9792L43.7757 39.9273L43.8555 39.5156L44.3675 36.875H38.7349Z" fill="white"/>
</g>
<g opacity="0.9">
<rect x="24" y="33.375" width="13.125" height="13.125" rx="6.5625" fill="#E44D26"/>
<path fill-rule="evenodd" clip-rule="evenodd" d="M29.1345 39.0642H30.562H30.5657H32.7847H33.0761L33.0498 39.3547L32.7957 42.2022L32.7794 42.3849L30.5657 42.9987L30.562 42.9995L30.5608 43L28.3451 42.3849L28.1936 40.6867H29.2795L29.3564 41.5492L30.5609 41.8746L30.562 41.8742L30.5657 41.8732L31.7683 41.5486L31.8938 40.1458H30.5657H30.562H28.1452L27.8795 37.1652L27.8535 36.875H30.562H30.5657H33.2715L33.2457 37.1652L33.1963 37.7135L33.1746 37.9565H30.5657H30.562H29.0356L29.1345 39.0642Z" fill="white"/>
</g>
<g opacity="0.9">
<rect x="29.25" y="24.625" width="13.125" height="13.125" rx="6.5625" fill="#E5D130"/>
<path d="M32.3066 32.7372L33.1206 32.2527C33.2776 32.5267 33.4205 32.7584 33.7632 32.7584C34.0915 32.7584 34.2986 32.6326 34.2986 32.1402V28.7968H35.2982V32.1541C35.2982 33.1724 34.6914 33.6361 33.8061 33.6361C33.4932 33.6528 33.1824 33.5758 32.9148 33.4153C32.6472 33.2548 32.4352 33.0183 32.3069 32.737L32.3066 32.7372ZM35.8413 32.6316L36.6552 32.1679C36.7457 32.3485 36.8862 32.5004 37.0605 32.606C37.2347 32.7116 37.4358 32.7667 37.6405 32.7649C38.0547 32.7649 38.3186 32.5611 38.3186 32.2801C38.3186 31.943 38.0473 31.8235 37.5903 31.626L37.3413 31.5219C36.6202 31.22 36.1418 30.8406 36.1418 30.0398C36.1418 29.3022 36.713 28.7404 37.6054 28.7404C37.8946 28.7198 38.1835 28.7834 38.4362 28.9233C38.6888 29.0632 38.894 29.2732 39.0261 29.5271L38.2478 30.0189C38.1967 29.8929 38.1079 29.7851 37.9931 29.7099C37.8784 29.6346 37.7431 29.5954 37.6052 29.5976C37.5451 29.5916 37.4843 29.598 37.4269 29.6164C37.3694 29.6348 37.3165 29.6648 37.2715 29.7044C37.2265 29.7441 37.1903 29.7925 37.1654 29.8467C37.1405 29.9008 37.1273 29.9595 37.1267 30.0189C37.1267 30.314 37.3124 30.4333 37.7404 30.6159L37.9903 30.7213C38.84 31.0796 39.3182 31.4449 39.3182 32.2665C39.3182 33.1516 38.6114 33.6364 37.6619 33.6364C36.7337 33.6364 36.1341 33.2009 35.8413 32.6318" fill="#09090A"/>
</g>
<defs>
<filter id="filter0_f_567_1262" x="0.598575" y="2.59857" width="70.8029" height="66.8029" filterUnits="userSpaceOnUse" color-interpolation-filters="sRGB">
<feFlood flood-opacity="0" result="BackgroundImageFix"/>
<feBlend mode="normal" in="SourceGraphic" in2="BackgroundImageFix" result="shape"/>
<feGaussianBlur stdDeviation="5.70071" result="effect1_foregroundBlur_567_1262"/>
</filter>
<linearGradient id="paint0_linear_567_1262" x1="11.9994" y1="35.9994" x2="59.9994" y2="35.9994" gradientUnits="userSpaceOnUse">
<stop stop-color="#CE4623"/>
<stop offset="0.46875" stop-color="#CFBD2C"/>
<stop offset="1" stop-color="#3C95DD" stop-opacity="0.25"/>
</linearGradient>
</defs>
</svg>
