<svg width="72" height="72" viewBox="0 0 72 72" fill="none" xmlns="http://www.w3.org/2000/svg">
<g filter="url(#filter0_f_567_1302)">
<path d="M56.6343 21.8048C53.0788 16.6262 46.1262 14 35.9732 14H35.9567C25.8191 14.0028 18.8836 16.6301 15.3435 21.8088C12.3797 26.1436 12 31.6703 12 36C12 40.3297 12.3797 45.8558 15.3435 50.1906C18.8836 55.3687 25.8191 57.996 35.9572 58H35.9772C46.1296 58 53.0794 55.3744 56.6349 50.1957C59.617 45.8513 60 40.3275 60 36.0006C60 31.6737 59.6181 26.1499 56.6355 21.806H56.6349L56.6343 21.8048Z" fill="url(#paint0_linear_567_1302)"/>
</g>
<path d="M55.7755 22.4505C52.368 17.5071 45.705 15 35.9749 15H35.9585C26.2431 15.0028 19.5964 17.5105 16.2042 22.4538C13.364 26.5918 13 31.8671 13 36C13 40.1329 13.364 45.4077 16.2042 49.5456C19.597 54.4884 26.2436 56.9966 35.959 57H35.9777C45.7072 57 52.3674 54.4934 55.7748 49.5501C58.6331 45.4032 59 40.1301 59 36C59 31.8699 58.6337 26.5974 55.7755 22.4505Z" fill="#0B0B11"/>
<path d="M33.5652 24.7576C31.7679 24.7576 30.3126 26.196 30.3126 27.9724V29.8609H35.1915C35.6351 29.8609 36.0002 30.5028 36.0002 30.9412H27.8776C26.0803 30.9412 24.625 32.3797 24.625 34.1561V38.4072C24.625 40.1836 26.0803 41.6221 27.8776 41.6221H29.2196V38.6093C29.2196 36.8329 30.666 35.3945 32.4633 35.3945H38.4353C40.2326 35.3945 41.688 33.9648 41.688 32.1884V27.9723C41.688 26.1959 40.2326 24.7575 38.4353 24.7575L33.5652 24.7576ZM32.7476 26.567C33.2026 26.567 33.5652 26.703 33.5652 27.3663C33.5652 28.0297 33.2026 28.3676 32.7476 28.3676C32.304 28.3676 31.9389 28.0297 31.9389 27.3663C31.9389 26.703 32.304 26.567 32.7476 26.567Z" fill="#FFCD1E"/>
<path d="M42.7782 30.3781V33.3909C42.7782 35.1673 41.3341 36.6057 39.5368 36.6057H33.5648C31.7675 36.6057 30.3121 38.0331 30.3121 39.8095V44.0256C30.3119 44.4479 30.3959 44.8661 30.5593 45.2564C30.7227 45.6466 30.9622 46.0012 31.2643 46.3C31.5663 46.5987 31.9249 46.8357 32.3197 46.9974C32.7144 47.1592 33.1375 47.2424 33.5648 47.2425H38.4347C38.862 47.2424 39.2851 47.1592 39.6799 46.9974C40.0746 46.8357 40.4332 46.5987 40.7353 46.3C41.0373 46.0012 41.2768 45.6466 41.4402 45.2564C41.6036 44.8661 41.6876 44.4479 41.6874 44.0256V42.1371H36.8063C36.3626 42.1371 35.9998 41.4974 35.9998 41.0589H44.1224C44.5497 41.0588 44.9728 40.9755 45.3675 40.8138C45.7622 40.6521 46.1208 40.4151 46.4229 40.1164C46.7249 39.8176 46.9645 39.463 47.1278 39.0728C47.2912 38.6825 47.3752 38.2643 47.375 37.842V33.5929C47.3748 32.7404 47.0321 31.9228 46.4221 31.3199C45.8122 30.7171 44.985 30.3783 44.1224 30.3781L42.7782 30.3781ZM31.814 35.4528L31.8096 35.4572C31.8232 35.4545 31.8381 35.4554 31.8518 35.4528H31.814ZM39.2524 43.6325C39.696 43.6325 40.0611 43.9705 40.0611 44.6338C40.0608 44.8455 39.9754 45.0484 39.8238 45.1979C39.6721 45.3474 39.4666 45.4312 39.2524 45.4309C38.7974 45.4309 38.4348 45.2972 38.4348 44.6338C38.4348 43.9705 38.7974 43.6325 39.2524 43.6325Z" fill="#FFCD1E"/>
<defs>
<filter id="filter0_f_567_1302" x="0.598575" y="2.59857" width="70.8029" height="66.8029" filterUnits="userSpaceOnUse" color-interpolation-filters="sRGB">
<feFlood flood-opacity="0" result="BackgroundImageFix"/>
<feBlend mode="normal" in="SourceGraphic" in2="BackgroundImageFix" result="shape"/>
<feGaussianBlur stdDeviation="5.70071" result="effect1_foregroundBlur_567_1302"/>
</filter>
<linearGradient id="paint0_linear_567_1302" x1="11.9994" y1="35.9994" x2="59.9994" y2="35.9994" gradientUnits="userSpaceOnUse">
<stop stop-color="#E5C430"/>
<stop offset="1" stop-color="#E5C430" stop-opacity="0.25"/>
</linearGradient>
</defs>
</svg>
